<mxfile host="app.diagrams.net" agent="Mozilla/5.0 (Windows NT 10.0; Win64; x64) AppleWebKit/537.36 (KHTML, like Gecko) Chrome/132.0.0.0 Safari/537.36" version="26.0.11">
  <diagram id="C5RBs43oDa-KdzZeNtuy" name="Page-1">
    <mxGraphModel dx="3319" dy="937" grid="1" gridSize="10" guides="1" tooltips="1" connect="1" arrows="1" fold="1" page="1" pageScale="1" pageWidth="1169" pageHeight="827" math="0" shadow="0">
      <root>
        <mxCell id="WIyWlLk6GJQsqaUBKTNV-0" />
        <mxCell id="WIyWlLk6GJQsqaUBKTNV-1" parent="WIyWlLk6GJQsqaUBKTNV-0" />
        <mxCell id="99Dq0PLwy25u2a470qM1-8" value="" style="edgeStyle=orthogonalEdgeStyle;rounded=0;orthogonalLoop=1;jettySize=auto;html=1;entryX=1;entryY=0.5;entryDx=0;entryDy=0;labelBackgroundColor=none;strokeColor=#A8201A;fontColor=default;" edge="1" parent="WIyWlLk6GJQsqaUBKTNV-1">
          <mxGeometry relative="1" as="geometry">
            <mxPoint x="260" y="240" as="sourcePoint" />
            <mxPoint x="-130" y="396" as="targetPoint" />
            <Array as="points">
              <mxPoint x="260" y="242" />
              <mxPoint x="-130" y="242" />
            </Array>
          </mxGeometry>
        </mxCell>
        <mxCell id="99Dq0PLwy25u2a470qM1-0" value="Group-22&lt;div&gt;Mihirchandra(S20220010138)&lt;/div&gt;&lt;div&gt;Sundar (S20220010215)&lt;/div&gt;&lt;div&gt;Nivas(S20220010092)&lt;/div&gt;&lt;div&gt;Venu Gopal(S20220010037)&lt;/div&gt;&lt;div&gt;Sujith(S20220010214)&lt;/div&gt;" style="rounded=0;whiteSpace=wrap;html=1;labelBackgroundColor=none;fillColor=#FAE5C7;strokeColor=#0F8B8D;fontColor=#143642;" vertex="1" parent="WIyWlLk6GJQsqaUBKTNV-1">
          <mxGeometry x="720" width="430" height="100" as="geometry" />
        </mxCell>
        <mxCell id="99Dq0PLwy25u2a470qM1-1" value="Project Name: Chess Masters&lt;div&gt;Domain: Gaming and Education&lt;/div&gt;" style="rounded=0;whiteSpace=wrap;html=1;labelBackgroundColor=none;fillColor=#FAE5C7;strokeColor=#0F8B8D;fontColor=#143642;" vertex="1" parent="WIyWlLk6GJQsqaUBKTNV-1">
          <mxGeometry x="230" y="10" width="250" height="60" as="geometry" />
        </mxCell>
        <mxCell id="99Dq0PLwy25u2a470qM1-20" style="edgeStyle=orthogonalEdgeStyle;rounded=0;orthogonalLoop=1;jettySize=auto;html=1;labelBackgroundColor=none;strokeColor=#A8201A;fontColor=default;" edge="1" parent="WIyWlLk6GJQsqaUBKTNV-1" source="99Dq0PLwy25u2a470qM1-7">
          <mxGeometry relative="1" as="geometry">
            <mxPoint x="-230" y="610" as="targetPoint" />
          </mxGeometry>
        </mxCell>
        <mxCell id="99Dq0PLwy25u2a470qM1-26" value="" style="edgeStyle=orthogonalEdgeStyle;rounded=0;orthogonalLoop=1;jettySize=auto;html=1;labelBackgroundColor=none;strokeColor=#A8201A;fontColor=default;" edge="1" parent="WIyWlLk6GJQsqaUBKTNV-1" source="99Dq0PLwy25u2a470qM1-7" target="99Dq0PLwy25u2a470qM1-25">
          <mxGeometry relative="1" as="geometry">
            <Array as="points">
              <mxPoint x="40" y="440" />
              <mxPoint x="40" y="545" />
              <mxPoint x="20" y="545" />
              <mxPoint x="20" y="550" />
              <mxPoint x="120" y="550" />
            </Array>
          </mxGeometry>
        </mxCell>
        <mxCell id="99Dq0PLwy25u2a470qM1-7" value="Player" style="whiteSpace=wrap;html=1;verticalAlign=top;fontStyle=2;startSize=26;rounded=0;shadow=0;strokeWidth=1;labelBackgroundColor=none;fillColor=#FAE5C7;strokeColor=#0F8B8D;fontColor=#143642;" vertex="1" parent="WIyWlLk6GJQsqaUBKTNV-1">
          <mxGeometry x="-180" y="400" width="170" height="80" as="geometry" />
        </mxCell>
        <mxCell id="99Dq0PLwy25u2a470qM1-28" value="" style="edgeStyle=orthogonalEdgeStyle;rounded=0;orthogonalLoop=1;jettySize=auto;html=1;labelBackgroundColor=none;strokeColor=#A8201A;fontColor=default;" edge="1" parent="WIyWlLk6GJQsqaUBKTNV-1" source="99Dq0PLwy25u2a470qM1-9" target="99Dq0PLwy25u2a470qM1-27">
          <mxGeometry relative="1" as="geometry" />
        </mxCell>
        <mxCell id="99Dq0PLwy25u2a470qM1-29" style="edgeStyle=orthogonalEdgeStyle;rounded=0;orthogonalLoop=1;jettySize=auto;html=1;entryX=0.5;entryY=0;entryDx=0;entryDy=0;labelBackgroundColor=none;strokeColor=#A8201A;fontColor=default;" edge="1" parent="WIyWlLk6GJQsqaUBKTNV-1" source="99Dq0PLwy25u2a470qM1-9" target="99Dq0PLwy25u2a470qM1-30">
          <mxGeometry relative="1" as="geometry">
            <mxPoint x="940" y="580" as="targetPoint" />
            <Array as="points">
              <mxPoint x="1000" y="482" />
              <mxPoint x="1000" y="645" />
              <mxPoint x="1005" y="645" />
            </Array>
          </mxGeometry>
        </mxCell>
        <mxCell id="99Dq0PLwy25u2a470qM1-42" style="edgeStyle=orthogonalEdgeStyle;rounded=0;orthogonalLoop=1;jettySize=auto;html=1;entryX=0.75;entryY=0;entryDx=0;entryDy=0;labelBackgroundColor=none;strokeColor=#A8201A;fontColor=default;" edge="1" parent="WIyWlLk6GJQsqaUBKTNV-1" source="99Dq0PLwy25u2a470qM1-41" target="99Dq0PLwy25u2a470qM1-25">
          <mxGeometry relative="1" as="geometry" />
        </mxCell>
        <mxCell id="99Dq0PLwy25u2a470qM1-9" value="Coach" style="whiteSpace=wrap;html=1;verticalAlign=top;fontStyle=2;startSize=26;rounded=0;shadow=0;strokeWidth=1;labelBackgroundColor=none;fillColor=#FAE5C7;strokeColor=#0F8B8D;fontColor=#143642;" vertex="1" parent="WIyWlLk6GJQsqaUBKTNV-1">
          <mxGeometry x="710" y="394" width="200" height="176" as="geometry" />
        </mxCell>
        <mxCell id="99Dq0PLwy25u2a470qM1-19" style="edgeStyle=orthogonalEdgeStyle;rounded=0;orthogonalLoop=1;jettySize=auto;html=1;labelBackgroundColor=none;strokeColor=#A8201A;fontColor=default;" edge="1" parent="WIyWlLk6GJQsqaUBKTNV-1" source="zkfFHV4jXpPFQw0GAbJ--0">
          <mxGeometry relative="1" as="geometry">
            <mxPoint x="780" y="390" as="targetPoint" />
          </mxGeometry>
        </mxCell>
        <mxCell id="zkfFHV4jXpPFQw0GAbJ--0" value="User" style="swimlane;fontStyle=2;align=center;verticalAlign=top;childLayout=stackLayout;horizontal=1;startSize=26;horizontalStack=0;resizeParent=1;resizeLast=0;collapsible=1;marginBottom=0;rounded=0;shadow=0;strokeWidth=1;labelBackgroundColor=none;fillColor=#FAE5C7;strokeColor=#0F8B8D;fontColor=#143642;" parent="WIyWlLk6GJQsqaUBKTNV-1" vertex="1">
          <mxGeometry x="260" y="150" width="160" height="138" as="geometry">
            <mxRectangle x="230" y="140" width="160" height="26" as="alternateBounds" />
          </mxGeometry>
        </mxCell>
        <mxCell id="zkfFHV4jXpPFQw0GAbJ--4" value="" style="line;html=1;strokeWidth=1;align=left;verticalAlign=middle;spacingTop=-1;spacingLeft=3;spacingRight=3;rotatable=0;labelPosition=right;points=[];portConstraint=eastwest;labelBackgroundColor=none;fillColor=#FAE5C7;strokeColor=#0F8B8D;fontColor=#143642;" parent="zkfFHV4jXpPFQw0GAbJ--0" vertex="1">
          <mxGeometry y="26" width="160" height="8" as="geometry" />
        </mxCell>
        <mxCell id="99Dq0PLwy25u2a470qM1-31" value="+id: Object id&lt;div&gt;+ name: String&lt;/div&gt;&lt;div&gt;+ email: String&lt;/div&gt;&lt;div&gt;+ password: String&lt;/div&gt;&lt;div&gt;+role: enum(Player,coach)&lt;/div&gt;" style="text;html=1;align=center;verticalAlign=middle;resizable=0;points=[];autosize=1;strokeColor=none;fillColor=none;labelBackgroundColor=none;fontColor=#143642;" vertex="1" parent="zkfFHV4jXpPFQw0GAbJ--0">
          <mxGeometry y="34" width="160" height="90" as="geometry" />
        </mxCell>
        <mxCell id="99Dq0PLwy25u2a470qM1-24" value="" style="edgeStyle=orthogonalEdgeStyle;rounded=0;orthogonalLoop=1;jettySize=auto;html=1;labelBackgroundColor=none;strokeColor=#A8201A;fontColor=default;" edge="1" parent="WIyWlLk6GJQsqaUBKTNV-1" source="99Dq0PLwy25u2a470qM1-21" target="99Dq0PLwy25u2a470qM1-23">
          <mxGeometry relative="1" as="geometry" />
        </mxCell>
        <mxCell id="99Dq0PLwy25u2a470qM1-21" value="Game" style="whiteSpace=wrap;html=1;verticalAlign=top;fontStyle=2;startSize=26;rounded=0;shadow=0;strokeWidth=1;labelBackgroundColor=none;fillColor=#FAE5C7;strokeColor=#0F8B8D;fontColor=#143642;" vertex="1" parent="WIyWlLk6GJQsqaUBKTNV-1">
          <mxGeometry x="-360" y="610" width="200" height="120" as="geometry" />
        </mxCell>
        <mxCell id="99Dq0PLwy25u2a470qM1-23" value="Move" style="whiteSpace=wrap;html=1;verticalAlign=top;fontStyle=2;startSize=26;rounded=0;shadow=0;strokeWidth=1;labelBackgroundColor=none;fillColor=#FAE5C7;strokeColor=#0F8B8D;fontColor=#143642;" vertex="1" parent="WIyWlLk6GJQsqaUBKTNV-1">
          <mxGeometry x="-320" y="827" width="120" height="60" as="geometry" />
        </mxCell>
        <mxCell id="99Dq0PLwy25u2a470qM1-25" value="Subscription" style="whiteSpace=wrap;html=1;verticalAlign=top;fontStyle=2;startSize=26;rounded=0;shadow=0;strokeWidth=1;labelBackgroundColor=none;fillColor=#FAE5C7;strokeColor=#0F8B8D;fontColor=#143642;" vertex="1" parent="WIyWlLk6GJQsqaUBKTNV-1">
          <mxGeometry x="60" y="610" width="180" height="140" as="geometry" />
        </mxCell>
        <mxCell id="99Dq0PLwy25u2a470qM1-27" value="Articles" style="whiteSpace=wrap;html=1;verticalAlign=top;fontStyle=2;startSize=26;rounded=0;shadow=0;strokeWidth=1;labelBackgroundColor=none;fillColor=#FAE5C7;strokeColor=#0F8B8D;fontColor=#143642;" vertex="1" parent="WIyWlLk6GJQsqaUBKTNV-1">
          <mxGeometry x="440" y="730" width="190" height="140" as="geometry" />
        </mxCell>
        <mxCell id="99Dq0PLwy25u2a470qM1-30" value="Videos" style="whiteSpace=wrap;html=1;verticalAlign=top;fontStyle=2;startSize=26;rounded=0;shadow=0;strokeWidth=1;labelBackgroundColor=none;fillColor=#FAE5C7;strokeColor=#0F8B8D;fontColor=#143642;" vertex="1" parent="WIyWlLk6GJQsqaUBKTNV-1">
          <mxGeometry x="910" y="720" width="190" height="150" as="geometry" />
        </mxCell>
        <mxCell id="99Dq0PLwy25u2a470qM1-32" value="+ rating: number&lt;div&gt;+ game History: game[]&lt;/div&gt;&lt;div&gt;+ subscriptionStatus: boolean&lt;/div&gt;" style="text;html=1;align=center;verticalAlign=middle;resizable=0;points=[];autosize=1;strokeColor=none;fillColor=none;labelBackgroundColor=none;fontColor=#143642;" vertex="1" parent="WIyWlLk6GJQsqaUBKTNV-1">
          <mxGeometry x="-190" y="420" width="180" height="60" as="geometry" />
        </mxCell>
        <mxCell id="99Dq0PLwy25u2a470qM1-33" value="+ notation: String&lt;div&gt;+ timeStamp: Date&lt;/div&gt;" style="text;html=1;align=center;verticalAlign=middle;resizable=0;points=[];autosize=1;strokeColor=none;fillColor=none;labelBackgroundColor=none;fontColor=#143642;" vertex="1" parent="WIyWlLk6GJQsqaUBKTNV-1">
          <mxGeometry x="-325" y="847" width="120" height="40" as="geometry" />
        </mxCell>
        <mxCell id="99Dq0PLwy25u2a470qM1-34" value="+id: Object id&lt;div&gt;+ player: Player&lt;/div&gt;&lt;div&gt;+ coach: Coach&lt;/div&gt;&lt;div&gt;+startDate: Date&lt;/div&gt;&lt;div&gt;+endDate: Daye&lt;/div&gt;&lt;div&gt;+paymentStatus: Boolean&lt;/div&gt;" style="text;html=1;align=center;verticalAlign=middle;resizable=0;points=[];autosize=1;strokeColor=none;fillColor=none;labelBackgroundColor=none;fontColor=#143642;" vertex="1" parent="WIyWlLk6GJQsqaUBKTNV-1">
          <mxGeometry x="70" y="630" width="160" height="100" as="geometry" />
        </mxCell>
        <mxCell id="99Dq0PLwy25u2a470qM1-35" value="+id: Object id&lt;div&gt;+ title: String&lt;/div&gt;&lt;div&gt;+ content: String&lt;/div&gt;&lt;div&gt;+coach: Coach&lt;/div&gt;&lt;div&gt;+ uploadDate: Date&lt;/div&gt;" style="text;html=1;align=center;verticalAlign=middle;resizable=0;points=[];autosize=1;strokeColor=none;fillColor=none;labelBackgroundColor=none;fontColor=#143642;" vertex="1" parent="WIyWlLk6GJQsqaUBKTNV-1">
          <mxGeometry x="470" y="770" width="130" height="90" as="geometry" />
        </mxCell>
        <mxCell id="99Dq0PLwy25u2a470qM1-36" value="+id: Object id&lt;div&gt;+ title: String&lt;/div&gt;&lt;div&gt;+ url: String&lt;/div&gt;&lt;div&gt;+coach: Coach&lt;/div&gt;&lt;div&gt;+ uploadDate: Date&lt;/div&gt;" style="text;html=1;align=center;verticalAlign=middle;resizable=0;points=[];autosize=1;strokeColor=none;fillColor=none;labelBackgroundColor=none;fontColor=#143642;" vertex="1" parent="WIyWlLk6GJQsqaUBKTNV-1">
          <mxGeometry x="950" y="770" width="130" height="90" as="geometry" />
        </mxCell>
        <mxCell id="99Dq0PLwy25u2a470qM1-37" value="+Fideid: String&lt;div&gt;+ Location: String&lt;/div&gt;&lt;div&gt;+languages: String[]&lt;/div&gt;&lt;div&gt;+ hourlyrate: number&lt;/div&gt;&lt;div&gt;+playingExperience:String&lt;/div&gt;&lt;div&gt;+teachingExperience: String&lt;/div&gt;&lt;div&gt;+aboutinfo: String&lt;/div&gt;&lt;div&gt;+subscribers: Player[]&lt;/div&gt;&lt;div&gt;+articles: Article[]&lt;/div&gt;&lt;div&gt;+videos: Video[]&lt;/div&gt;&lt;div&gt;&lt;br&gt;&lt;/div&gt;&lt;div&gt;&lt;br&gt;&lt;/div&gt;" style="text;html=1;align=center;verticalAlign=middle;resizable=0;points=[];autosize=1;strokeColor=none;fillColor=none;labelBackgroundColor=none;fontColor=#143642;" vertex="1" parent="WIyWlLk6GJQsqaUBKTNV-1">
          <mxGeometry x="725" y="410" width="170" height="190" as="geometry" />
        </mxCell>
        <mxCell id="99Dq0PLwy25u2a470qM1-38" value="+id: Object id&lt;div&gt;+ players: Player[2]&lt;/div&gt;&lt;div&gt;result: enum(win/loss/draw)&lt;/div&gt;&lt;div&gt;moves: Move[]&lt;/div&gt;&lt;div&gt;timeControl: String&lt;/div&gt;&lt;div&gt;gameDate: Date&lt;/div&gt;" style="text;html=1;align=center;verticalAlign=middle;resizable=0;points=[];autosize=1;strokeColor=none;fillColor=none;labelBackgroundColor=none;fontColor=#143642;" vertex="1" parent="WIyWlLk6GJQsqaUBKTNV-1">
          <mxGeometry x="-350" y="630" width="170" height="100" as="geometry" />
        </mxCell>
        <mxCell id="99Dq0PLwy25u2a470qM1-39" value="Participates in" style="text;html=1;align=center;verticalAlign=middle;resizable=0;points=[];autosize=1;strokeColor=none;fillColor=none;labelBackgroundColor=none;fontColor=#143642;" vertex="1" parent="WIyWlLk6GJQsqaUBKTNV-1">
          <mxGeometry x="-320" y="520" width="100" height="30" as="geometry" />
        </mxCell>
        <mxCell id="99Dq0PLwy25u2a470qM1-40" value="Subscribes" style="text;html=1;align=center;verticalAlign=middle;resizable=0;points=[];autosize=1;strokeColor=none;fillColor=none;labelBackgroundColor=none;fontColor=#143642;" vertex="1" parent="WIyWlLk6GJQsqaUBKTNV-1">
          <mxGeometry x="40" y="490" width="80" height="30" as="geometry" />
        </mxCell>
        <mxCell id="99Dq0PLwy25u2a470qM1-43" value="" style="edgeStyle=orthogonalEdgeStyle;rounded=0;orthogonalLoop=1;jettySize=auto;html=1;entryX=0.75;entryY=0;entryDx=0;entryDy=0;labelBackgroundColor=none;strokeColor=#A8201A;fontColor=default;" edge="1" parent="WIyWlLk6GJQsqaUBKTNV-1" source="99Dq0PLwy25u2a470qM1-9" target="99Dq0PLwy25u2a470qM1-41">
          <mxGeometry relative="1" as="geometry">
            <mxPoint x="710" y="482" as="sourcePoint" />
            <mxPoint x="195" y="610" as="targetPoint" />
          </mxGeometry>
        </mxCell>
        <mxCell id="99Dq0PLwy25u2a470qM1-41" value="Has Subscribers" style="text;html=1;align=center;verticalAlign=middle;resizable=0;points=[];autosize=1;strokeColor=none;fillColor=none;labelBackgroundColor=none;fontColor=#143642;" vertex="1" parent="WIyWlLk6GJQsqaUBKTNV-1">
          <mxGeometry x="240" y="450" width="110" height="30" as="geometry" />
        </mxCell>
        <mxCell id="99Dq0PLwy25u2a470qM1-44" value="Writes" style="text;html=1;align=center;verticalAlign=middle;resizable=0;points=[];autosize=1;strokeColor=none;fillColor=none;labelBackgroundColor=none;fontColor=#143642;" vertex="1" parent="WIyWlLk6GJQsqaUBKTNV-1">
          <mxGeometry x="540" y="590" width="60" height="30" as="geometry" />
        </mxCell>
        <mxCell id="99Dq0PLwy25u2a470qM1-45" value="Creates" style="text;html=1;align=center;verticalAlign=middle;resizable=0;points=[];autosize=1;strokeColor=none;fillColor=none;labelBackgroundColor=none;fontColor=#143642;" vertex="1" parent="WIyWlLk6GJQsqaUBKTNV-1">
          <mxGeometry x="1010" y="560" width="70" height="30" as="geometry" />
        </mxCell>
        <mxCell id="99Dq0PLwy25u2a470qM1-46" value="Contains" style="text;html=1;align=center;verticalAlign=middle;resizable=0;points=[];autosize=1;strokeColor=none;fillColor=none;labelBackgroundColor=none;fontColor=#143642;" vertex="1" parent="WIyWlLk6GJQsqaUBKTNV-1">
          <mxGeometry x="-245" y="760" width="70" height="30" as="geometry" />
        </mxCell>
        <mxCell id="99Dq0PLwy25u2a470qM1-47" value="Inherits" style="text;html=1;align=center;verticalAlign=middle;resizable=0;points=[];autosize=1;strokeColor=none;fillColor=none;labelBackgroundColor=none;fontColor=#143642;" vertex="1" parent="WIyWlLk6GJQsqaUBKTNV-1">
          <mxGeometry x="550" y="220" width="60" height="30" as="geometry" />
        </mxCell>
        <mxCell id="99Dq0PLwy25u2a470qM1-48" value="Inherits" style="text;html=1;align=center;verticalAlign=middle;resizable=0;points=[];autosize=1;strokeColor=none;fillColor=none;labelBackgroundColor=none;fontColor=#143642;" vertex="1" parent="WIyWlLk6GJQsqaUBKTNV-1">
          <mxGeometry x="-30" y="240" width="60" height="30" as="geometry" />
        </mxCell>
        <mxCell id="99Dq0PLwy25u2a470qM1-49" value="HUB" style="whiteSpace=wrap;html=1;verticalAlign=top;fontStyle=2;startSize=26;rounded=0;shadow=0;strokeWidth=1;labelBackgroundColor=none;fillColor=#FAE5C7;strokeColor=#0F8B8D;fontColor=#143642;" vertex="1" parent="WIyWlLk6GJQsqaUBKTNV-1">
          <mxGeometry x="110" y="990" width="180" height="140" as="geometry" />
        </mxCell>
        <mxCell id="99Dq0PLwy25u2a470qM1-50" value="+Game: *game&lt;div&gt;+Articles: *articles&lt;/div&gt;&lt;div&gt;+Videos: *videos&lt;/div&gt;" style="text;html=1;align=center;verticalAlign=middle;resizable=0;points=[];autosize=1;strokeColor=none;fillColor=none;labelBackgroundColor=none;fontColor=#143642;" vertex="1" parent="WIyWlLk6GJQsqaUBKTNV-1">
          <mxGeometry x="140" y="1040" width="120" height="60" as="geometry" />
        </mxCell>
        <mxCell id="99Dq0PLwy25u2a470qM1-53" value="" style="endArrow=classic;startArrow=classic;html=1;rounded=0;entryX=0;entryY=0.75;entryDx=0;entryDy=0;labelBackgroundColor=none;strokeColor=#A8201A;fontColor=default;" edge="1" parent="WIyWlLk6GJQsqaUBKTNV-1" target="99Dq0PLwy25u2a470qM1-27">
          <mxGeometry width="50" height="50" relative="1" as="geometry">
            <mxPoint x="250" y="980" as="sourcePoint" />
            <mxPoint x="280" y="960" as="targetPoint" />
          </mxGeometry>
        </mxCell>
        <mxCell id="99Dq0PLwy25u2a470qM1-54" value="" style="endArrow=classic;startArrow=classic;html=1;rounded=0;exitX=0;exitY=0.75;exitDx=0;exitDy=0;entryX=1.009;entryY=0.417;entryDx=0;entryDy=0;entryPerimeter=0;labelBackgroundColor=none;strokeColor=#A8201A;fontColor=default;" edge="1" parent="WIyWlLk6GJQsqaUBKTNV-1" source="99Dq0PLwy25u2a470qM1-30" target="99Dq0PLwy25u2a470qM1-49">
          <mxGeometry width="50" height="50" relative="1" as="geometry">
            <mxPoint x="230" y="1010" as="sourcePoint" />
            <mxPoint x="280" y="960" as="targetPoint" />
            <Array as="points" />
          </mxGeometry>
        </mxCell>
        <mxCell id="99Dq0PLwy25u2a470qM1-55" value="" style="endArrow=classic;startArrow=classic;html=1;rounded=0;entryX=1;entryY=0.5;entryDx=0;entryDy=0;exitX=0;exitY=0.25;exitDx=0;exitDy=0;labelBackgroundColor=none;strokeColor=#A8201A;fontColor=default;" edge="1" parent="WIyWlLk6GJQsqaUBKTNV-1" source="99Dq0PLwy25u2a470qM1-49" target="99Dq0PLwy25u2a470qM1-21">
          <mxGeometry width="50" height="50" relative="1" as="geometry">
            <mxPoint x="230" y="1010" as="sourcePoint" />
            <mxPoint x="280" y="960" as="targetPoint" />
          </mxGeometry>
        </mxCell>
        <mxCell id="99Dq0PLwy25u2a470qM1-56" value="" style="rounded=0;whiteSpace=wrap;html=1;labelBackgroundColor=none;fillColor=#FAE5C7;strokeColor=#0F8B8D;fontColor=#143642;" vertex="1" parent="WIyWlLk6GJQsqaUBKTNV-1">
          <mxGeometry x="-420" y="1180" width="230" height="120" as="geometry" />
        </mxCell>
        <mxCell id="99Dq0PLwy25u2a470qM1-57" value="" style="rounded=0;whiteSpace=wrap;html=1;labelBackgroundColor=none;fillColor=#FAE5C7;strokeColor=#0F8B8D;fontColor=#143642;" vertex="1" parent="WIyWlLk6GJQsqaUBKTNV-1">
          <mxGeometry x="590" y="1200" width="210" height="130" as="geometry" />
        </mxCell>
        <mxCell id="99Dq0PLwy25u2a470qM1-58" value="" style="rounded=0;whiteSpace=wrap;html=1;labelBackgroundColor=none;fillColor=#FAE5C7;strokeColor=#0F8B8D;fontColor=#143642;" vertex="1" parent="WIyWlLk6GJQsqaUBKTNV-1">
          <mxGeometry x="40" y="1210" width="180" height="110" as="geometry" />
        </mxCell>
        <mxCell id="99Dq0PLwy25u2a470qM1-59" value="" style="endArrow=classic;startArrow=classic;html=1;rounded=0;entryX=0;entryY=0.5;entryDx=0;entryDy=0;labelBackgroundColor=none;strokeColor=#A8201A;fontColor=default;" edge="1" parent="WIyWlLk6GJQsqaUBKTNV-1" target="99Dq0PLwy25u2a470qM1-49">
          <mxGeometry width="50" height="50" relative="1" as="geometry">
            <mxPoint x="-220" y="1180" as="sourcePoint" />
            <mxPoint x="-170" y="1130" as="targetPoint" />
          </mxGeometry>
        </mxCell>
        <mxCell id="99Dq0PLwy25u2a470qM1-60" value="" style="endArrow=classic;startArrow=classic;html=1;rounded=0;entryX=0.5;entryY=1;entryDx=0;entryDy=0;labelBackgroundColor=none;strokeColor=#A8201A;fontColor=default;" edge="1" parent="WIyWlLk6GJQsqaUBKTNV-1" target="99Dq0PLwy25u2a470qM1-49">
          <mxGeometry width="50" height="50" relative="1" as="geometry">
            <mxPoint x="130" y="1210" as="sourcePoint" />
            <mxPoint x="180" y="1160" as="targetPoint" />
          </mxGeometry>
        </mxCell>
        <mxCell id="99Dq0PLwy25u2a470qM1-61" value="" style="endArrow=classic;startArrow=classic;html=1;rounded=0;entryX=0.5;entryY=0;entryDx=0;entryDy=0;labelBackgroundColor=none;strokeColor=#A8201A;fontColor=default;" edge="1" parent="WIyWlLk6GJQsqaUBKTNV-1" target="99Dq0PLwy25u2a470qM1-57">
          <mxGeometry width="50" height="50" relative="1" as="geometry">
            <mxPoint x="300" y="1120" as="sourcePoint" />
            <mxPoint x="350" y="1070" as="targetPoint" />
          </mxGeometry>
        </mxCell>
        <mxCell id="99Dq0PLwy25u2a470qM1-63" value="+Get&lt;div&gt;+Add&lt;/div&gt;&lt;div&gt;+Play&lt;/div&gt;" style="text;html=1;align=center;verticalAlign=middle;whiteSpace=wrap;rounded=0;labelBackgroundColor=none;fontColor=#143642;" vertex="1" parent="WIyWlLk6GJQsqaUBKTNV-1">
          <mxGeometry x="95" y="1270" width="75" height="30" as="geometry" />
        </mxCell>
        <mxCell id="99Dq0PLwy25u2a470qM1-64" value="game Repository" style="text;html=1;align=center;verticalAlign=middle;whiteSpace=wrap;rounded=0;labelBackgroundColor=none;fontColor=#143642;" vertex="1" parent="WIyWlLk6GJQsqaUBKTNV-1">
          <mxGeometry x="600" y="1210" width="210" height="30" as="geometry" />
        </mxCell>
        <mxCell id="99Dq0PLwy25u2a470qM1-66" value="player Repository" style="text;html=1;align=center;verticalAlign=middle;whiteSpace=wrap;rounded=0;labelBackgroundColor=none;fontColor=#143642;" vertex="1" parent="WIyWlLk6GJQsqaUBKTNV-1">
          <mxGeometry x="-390" y="1190" width="200" height="40" as="geometry" />
        </mxCell>
        <mxCell id="99Dq0PLwy25u2a470qM1-68" value="coach Repository" style="text;html=1;align=center;verticalAlign=middle;whiteSpace=wrap;rounded=0;labelBackgroundColor=none;fontColor=#143642;" vertex="1" parent="WIyWlLk6GJQsqaUBKTNV-1">
          <mxGeometry x="10" y="1225" width="240" height="30" as="geometry" />
        </mxCell>
        <mxCell id="99Dq0PLwy25u2a470qM1-69" value="&lt;br&gt;&lt;div&gt;+Get&lt;/div&gt;&lt;div&gt;+play&lt;/div&gt;&lt;div&gt;+update&lt;/div&gt;&lt;div&gt;&lt;br&gt;&lt;/div&gt;" style="text;html=1;align=center;verticalAlign=middle;whiteSpace=wrap;rounded=0;labelBackgroundColor=none;fontColor=#143642;" vertex="1" parent="WIyWlLk6GJQsqaUBKTNV-1">
          <mxGeometry x="-390" y="1240" width="180" height="30" as="geometry" />
        </mxCell>
        <mxCell id="99Dq0PLwy25u2a470qM1-70" value="+Get&lt;div&gt;+stats&lt;/div&gt;&lt;div&gt;+moves&lt;/div&gt;" style="text;html=1;align=center;verticalAlign=middle;whiteSpace=wrap;rounded=0;labelBackgroundColor=none;fontColor=#143642;" vertex="1" parent="WIyWlLk6GJQsqaUBKTNV-1">
          <mxGeometry x="580" y="1245" width="240" height="75" as="geometry" />
        </mxCell>
      </root>
    </mxGraphModel>
  </diagram>
</mxfile>
